<svg width="1581" height="269" viewBox="0 0 1581 269" fill="none" xmlns="http://www.w3.org/2000/svg">
<path d="M1477.79 181.185V65.3972H1501.27L1555.53 136.69V65.3972H1580.67V181.185H1559L1502.93 107.577V181.185H1477.79Z" fill="#010101"/>
<path d="M1396.8 183.17C1361.07 183.17 1335.43 156.538 1335.43 123.621V123.291C1335.43 90.3737 1361.4 63.4116 1397.13 63.4116C1432.86 63.4116 1458.5 90.0429 1458.5 122.96V123.291C1458.5 156.208 1432.53 183.17 1396.8 183.17ZM1397.13 159.681C1417.64 159.681 1431.86 143.471 1431.86 123.621V123.291C1431.86 103.441 1417.31 86.9001 1396.8 86.9001C1376.29 86.9001 1362.06 103.11 1362.06 122.96V123.291C1362.06 143.14 1376.62 159.681 1397.13 159.681Z" fill="#010101"/>
<path d="M1279.25 182.84C1261.72 182.84 1244.02 176.72 1230.12 164.314L1245.17 146.285C1255.6 154.886 1266.51 160.345 1279.75 160.345C1290.17 160.345 1296.45 156.209 1296.45 149.427V149.097C1296.45 142.645 1292.48 139.337 1273.13 134.375C1249.81 128.42 1234.75 121.969 1234.75 98.9768V98.646C1234.75 77.6387 1251.63 63.7441 1275.28 63.7441C1292.15 63.7441 1306.54 69.0373 1318.29 78.4658L1305.05 97.6535C1294.8 90.5408 1284.71 86.2401 1274.95 86.2401C1265.19 86.2401 1260.06 90.7062 1260.06 96.3302V96.6611C1260.06 104.27 1265.02 106.751 1285.04 111.879C1308.53 117.999 1321.76 126.435 1321.76 146.615V146.946C1321.76 169.938 1304.23 182.84 1279.25 182.84Z" fill="#010101"/>
<path d="M1118.52 181.185V65.3972H1171.45C1186.18 65.3972 1197.59 69.5325 1205.2 77.1414C1211.65 83.5925 1215.12 92.6901 1215.12 103.607V103.938C1215.12 122.63 1205.03 134.374 1190.31 139.832L1218.6 181.185H1188.82L1164.01 144.133H1144V181.185H1118.52ZM1144 121.637H1169.8C1182.21 121.637 1189.32 115.021 1189.32 105.261V104.931C1189.32 94.0134 1181.71 88.3894 1169.3 88.3894H1144V121.637Z" fill="#010101"/>
<path d="M1006.06 181.185V65.3972H1093.39V88.0586H1031.36V111.547H1085.95V134.208H1031.36V158.524H1094.22V181.185H1006.06Z" fill="#010101"/>
<path d="M934.031 181.185V88.8857H898.798V65.3972H994.737V88.8857H959.504V181.185H934.031Z" fill="#010101"/>
<path d="M859.853 181.185V88.8857H824.62V65.3972H920.559V88.8857H885.326V181.185H859.853Z" fill="#010101"/>
<path d="M713.765 181.186L763.388 64.571H786.877L836.5 181.186H809.869L799.282 155.217H750.321L739.734 181.186H713.765ZM759.418 132.721H790.185L774.802 95.1722L759.418 132.721Z" fill="#010101"/>
<path d="M628.138 181.185V65.3972H675.445C703.069 65.3972 719.776 81.773 719.776 105.427V105.758C719.776 132.554 698.934 146.449 672.964 146.449H653.611V181.185H628.138ZM653.611 123.788H673.791C686.528 123.788 693.972 116.179 693.972 106.254V105.923C693.972 94.5097 686.032 88.3894 673.295 88.3894H653.611V123.788Z" fill="#010101"/>
<path d="M1328.31 268.624C1319.01 268.624 1310.24 265.409 1302.94 258.892L1309.37 251.245C1315.19 256.285 1321.01 259.152 1328.57 259.152C1335.18 259.152 1339.35 256.111 1339.35 251.505V251.332C1339.35 246.987 1336.91 244.64 1325.62 242.033C1312.67 238.905 1305.37 235.082 1305.37 223.872V223.698C1305.37 213.27 1314.06 206.057 1326.14 206.057C1335 206.057 1342.04 208.751 1348.21 213.704L1342.48 221.786C1337 217.702 1331.53 215.529 1325.96 215.529C1319.71 215.529 1316.06 218.745 1316.06 222.742V222.916C1316.06 227.608 1318.84 229.694 1330.48 232.475C1343.34 235.603 1350.04 240.209 1350.04 250.289V250.463C1350.04 261.846 1341.09 268.624 1328.31 268.624Z" fill="#F70901"/>
<path d="M1205.36 267.754V206.925H1250.46V216.484H1216.05V232.299H1246.55V241.858H1216.05V258.195H1250.89V267.754H1205.36Z" fill="#F70901"/>
<path d="M1086.47 267.754V206.925H1097.85L1116.36 235.688L1134.87 206.925H1146.25V267.754H1135.56V224.131L1116.36 252.807H1116.01L1096.98 224.305V267.754H1086.47Z" fill="#F70901"/>
<path d="M998.209 268.798C979.526 268.798 966.491 254.633 966.491 237.514V237.34C966.491 220.221 979.699 205.883 998.383 205.883C1017.07 205.883 1030.1 220.048 1030.1 237.167V237.34C1030.1 254.459 1016.89 268.798 998.209 268.798ZM998.383 258.978C1010.46 258.978 1018.89 249.332 1018.89 237.514V237.34C1018.89 225.522 1010.29 215.703 998.209 215.703C986.13 215.703 977.701 225.348 977.701 237.167V237.34C977.701 249.159 986.304 258.978 998.383 258.978Z" fill="#F70901"/>
<path d="M859.714 267.754V206.925H870.402V232.212H899.427V206.925H910.115V267.754H899.427V242.119H870.402V267.754H859.714Z" fill="#F70901"/>
<path fill-rule="evenodd" clip-rule="evenodd" d="M512.754 201.734V266.797H300.194V201.734H323.922L204.663 97.2857L303.623 0.46875L536.705 201.734H512.754ZM204.591 97.3405L204.655 97.279L204.663 97.2857L204.599 97.3479L204.591 97.3405ZM204.591 97.3405L158.483 55.8793L0.474365 201.734H25.141V266.797H118.088V201.734H95.5662L204.591 97.3405ZM237.859 205.627H237.93V266.798H175.421V205.627H175.464C176.503 203.082 184.496 198.087 208.453 198.087C232.184 198.087 237.92 203.036 237.859 205.627Z" fill="#F70901"/>
</svg>
